grf
version=1
nRows=9
nColumns=46
inDegrees=yes
endheader
time	ground_force_1_vx	ground_force_1_vy	ground_force_1_vz	ground_force_1_px	ground_force_1_py	ground_force_1_pz	ground_moment_1_mx	ground_moment_1_my	ground_moment_1_mz	ground_force_2_vx	ground_force_2_vy	ground_force_2_vz	ground_force_2_px	ground_force_2_py	ground_force_2_pz	ground_moment_2_mx	ground_moment_2_my	ground_moment_2_mz	ground_force_3_vx	ground_force_3_vy	ground_force_3_vz	ground_force_3_px	ground_force_3_py	ground_force_3_pz	ground_moment_3_mx	ground_moment_3_my	ground_moment_3_mz	ground_force_4_vx	ground_force_4_vy	ground_force_4_vz	ground_force_4_px	ground_force_4_py	ground_force_4_pz	ground_moment_4_mx	ground_moment_4_my	ground_moment_4_mz	ground_force_5_vx	ground_force_5_vy	ground_force_5_vz	ground_force_5_px	ground_force_5_py	ground_force_5_pz	ground_moment_5_mx	ground_moment_5_my	ground_moment_5_mz
2.655000	0.000000	0.000000	0.000000	0.000000	0.000000	0.000000	0.000000	0.000000	0.000000	0.000000	0.000000	0.000000	0.000000	0.000000	0.000000	0.000000	0.000000	0.000000	0.000000	0.000000	0.000000	0.000000	0.000000	0.000000	0.000000	0.000000	0.000000	-0.746794	604.502043	-24.664840	0.179522	0.000000	-0.915550	0.000000	11.676673	0.000000	-1.117466	575.808747	33.260636	0.214981	0.000000	-1.580439	0.000000	-9.522965	-0.000000
2.655500	0.000000	0.000000	0.000000	0.000000	0.000000	0.000000	0.000000	0.000000	0.000000	0.000000	0.000000	0.000000	0.000000	0.000000	0.000000	0.000000	0.000000	0.000000	0.000000	0.000000	0.000000	0.000000	0.000000	0.000000	0.000000	0.000000	0.000000	-0.623982	604.596081	-24.895275	0.179493	0.000000	-0.915536	0.000000	11.659734	0.000000	-1.064002	575.975595	33.581450	0.214942	0.000000	-1.580458	0.000000	-9.506937	-0.000000
2.656000	0.000000	0.000000	0.000000	0.000000	0.000000	0.000000	0.000000	0.000000	0.000000	0.000000	0.000000	0.000000	0.000000	0.000000	0.000000	0.000000	0.000000	0.000000	0.000000	0.000000	0.000000	0.000000	0.000000	0.000000	0.000000	0.000000	0.000000	-0.498864	604.688373	-25.124838	0.179465	0.000000	-0.915522	0.000000	11.642674	0.000000	-1.009263	576.139417	33.901437	0.214902	0.000000	-1.580477	0.000000	-9.490898	-0.000000
2.656500	0.000000	0.000000	0.000000	0.000000	0.000000	0.000000	0.000000	0.000000	0.000000	0.000000	0.000000	0.000000	0.000000	0.000000	0.000000	0.000000	0.000000	0.000000	0.000000	0.000000	0.000000	0.000000	0.000000	0.000000	0.000000	0.000000	0.000000	-0.371452	604.778987	-25.353528	0.179436	0.000000	-0.915507	0.000000	11.625500	0.000000	-0.953208	576.300352	34.220544	0.214863	0.000000	-1.580496	0.000000	-9.474852	-0.000000
2.657000	0.000000	0.000000	0.000000	0.000000	0.000000	0.000000	0.000000	0.000000	0.000000	0.000000	0.000000	0.000000	0.000000	0.000000	0.000000	0.000000	0.000000	0.000000	0.000000	0.000000	0.000000	0.000000	0.000000	0.000000	0.000000	0.000000	0.000000	-0.241765	604.867984	-25.581336	0.179408	0.000000	-0.915492	0.000000	11.608217	0.000000	-0.895787	576.458549	34.538715	0.214824	0.000000	-1.580515	0.000000	-9.458798	-0.000000
2.657500	0.000000	0.000000	0.000000	0.000000	0.000000	0.000000	0.000000	0.000000	0.000000	0.000000	0.000000	0.000000	0.000000	0.000000	0.000000	0.000000	0.000000	0.000000	0.000000	0.000000	0.000000	0.000000	0.000000	0.000000	0.000000	0.000000	0.000000	-0.109831	604.955426	-25.808253	0.179380	0.000000	-0.915477	0.000000	11.590830	0.000000	-0.836949	576.614162	34.855890	0.214785	0.000000	-1.580534	0.000000	-9.442734	-0.000000
2.658000	0.000000	0.000000	0.000000	0.000000	0.000000	0.000000	0.000000	0.000000	0.000000	0.000000	0.000000	0.000000	0.000000	0.000000	0.000000	0.000000	0.000000	0.000000	0.000000	0.000000	0.000000	0.000000	0.000000	0.000000	0.000000	0.000000	0.000000	0.024308	605.041367	-26.034269	0.179352	0.000000	-0.915461	0.000000	11.573344	0.000000	-0.776637	576.767333	35.172008	0.214746	0.000000	-1.580553	0.000000	-9.426658	-0.000000
2.658500	0.000000	0.000000	0.000000	0.000000	0.000000	0.000000	0.000000	0.000000	0.000000	0.000000	0.000000	0.000000	0.000000	0.000000	0.000000	0.000000	0.000000	0.000000	0.000000	0.000000	0.000000	0.000000	0.000000	0.000000	0.000000	0.000000	0.000000	0.160594	605.125845	-26.259379	0.179324	0.000000	-0.915444	0.000000	11.555762	0.000000	-0.714792	576.918189	35.487007	0.214708	0.000000	-1.580572	0.000000	-9.410566	-0.000000
2.659000	0.000000	0.000000	0.000000	0.000000	0.000000	0.000000	0.000000	0.000000	0.000000	0.000000	0.000000	0.000000	0.000000	0.000000	0.000000	0.000000	0.000000	0.000000	0.000000	0.000000	0.000000	0.000000	0.000000	0.000000	0.000000	0.000000	0.000000	0.298953	605.208881	-26.483580	0.179296	0.000000	-0.915428	0.000000	11.538090	0.000000	-0.651348	577.066837	35.800822	0.214669	0.000000	-1.580590	0.000000	-9.394458	-0.000000
